<svg version="1" xmlns="http://www.w3.org/2000/svg" width="405.333" height="405.333" viewBox="0 0 304.000000 304.000000"><path d="M133.3 2c-15.1 3.9-26 12-31.7 23.6-2.5 5.1-2.9 7.1-2.9 13.9 0 8.3 1.7 13.3 6 18 1 1.1 4.4 4.9 7.6 8.3 5.5 6.1 6.7 8.2 4.8 8.2-.5 0-3-1.9-5.6-4.2-20-18-30.5-22.7-50.3-22.7-13.3 0-22.6 1.9-31.7 6.4C14.2 61 5.8 74.2 6.4 89.8c.3 8.2 3 14.3 9.1 20.3 7.2 7.1 20.6 14.4 30.2 16.5 10.2 2.2 25.6.8 39.7-3.6 6.2-2 7-2 8.4-.6 2.3 2.3.9 3.1-8.8 5.6-14.9 3.7-20.8 6-28.6 10.9-13.8 8.8-17.3 24.2-9.7 42.9 4.4 10.8 17.6 20.5 32.3 23.6 6.4 1.4 24.2 1.5 30.5.1 6.8-1.4 21.3-6.8 25-9.2 4.5-3 9.9-8.5 12.3-12.5 2.2-3.8 3.2-3.5 3.3.9.2 4.7.4 7 1.3 12.5.5 2.4 1 5.6 1.3 7.3 1.2 7.8 4.6 23.4 5.9 27.3.8 2.3 1.4 4.7 1.4 5.2 0 .4-4.3-1.4-9.5-4-8.2-4.2-15.1-6.4-26.4-8.5-1.3-.2-5.6-.7-9.5-1-24.4-2-37.6-5.9-45.3-13.4-1.8-1.7-3.3-2.8-3.3-2.4.1 2.6 4.4 17.5 6.9 23.7 4 10 7.1 14.7 14.4 21.8 10.9 10.7 22.6 14.6 40.1 13.5 10.5-.7 16.8-2.2 30.2-7.3 5.3-1.9 9.7-3.4 9.8-3.2.2.2 1.9 3.3 3.9 7 9.6 17.3 24.3 31.1 39.7 37 10.7 4.2 11.4 4.2 15.5.7l3.6-3.2-6.3-2.5c-22.4-9-39-25.5-50.7-50.4-7.6-16.2-12.9-35.7-14.6-54.3-1.5-17-1.6-18.1-.4-15.5.6 1.4 1.9 4.4 3 6.7 3.9 8.8 12.7 16.1 25.4 20.9 9.4 3.5 9.6 3.5 20.8 3.9 17.3.5 35.3-5.1 45.9-14.5 6.9-6 11.1-15 11-23.5 0-9.9-2.6-16.6-8.6-22.9-9.2-9.6-16-13.2-32-17.1-10.4-2.5-15.9-5.5-10-5.5 1.6 0 7.2 1 12.4 2.1 11.7 2.7 31.1 3.4 39 1.6 7.7-1.8 15.3-6.2 22.5-12.9 8.8-8.2 10.9-12.9 11.3-25.6.4-9.6.2-10.5-2.3-14.8-11.7-19.9-41.6-29.5-69-22.3-11.2 3-23.1 10.2-31.2 18.8-2.8 3.1-5.4 5.3-5.8 4.9-.4-.3 2.3-5.2 5.9-10.8 10.7-16.5 11.1-17.3 11.1-27 0-9.8-1.2-12.8-7.8-19.4-5.6-5.6-13.5-9.9-24.8-13.8C166.7 1.1 164 .7 153 .4c-9.6-.2-14.2.2-19.7 1.6zm8.6 82.6c4.5 2.8 7.2 5.8 9.3 9.8l2 4 1.9-3.9c2.7-5.4 4.5-7.1 10.7-10.2 16.2-7.9 36.2 2.2 36.2 18.4 0 7.9-6.9 19-18.4 29.5-4.4 4-13.1 12.4-19.4 18.6L152.7 162l-3.4-4c-1.9-2.1-6-6.3-9.1-9.2-18.2-17-30-29.6-32.5-34.8-5-10.5-3.9-18.6 3.4-25.8 4.1-4.1 6.7-5.2 13.9-6.1 6.5-.8 13.3.3 16.9 2.5z"/></svg>