<!DOCTYPE svg PUBLIC "-//W3C//DTD SVG 20010904//EN" "http://www.w3.org/TR/2001/REC-SVG-20010904/DTD/svg10.dtd">
<svg version="1.0" xmlns="http://www.w3.org/2000/svg" width="1000px" height="1000px" viewBox="0 0 10000 10000" preserveAspectRatio="xMidYMid meet">
<g id="layer101" fill="#ffffff" stroke="none">
 <path d="M339 8191 l-29 -29 0 -3162 0 -3162 29 -29 29 -29 4622 0 4622 0 29 29 29 29 0 3162 0 3162 -29 29 -29 29 -4622 0 -4622 0 -29 -29z m9131 -3191 l0 -3020 -4480 0 -4480 0 0 3020 0 3020 4480 0 4480 0 0 -3020z"/>
 <path d="M3008 6390 c-1091 -726 -1991 -1330 -2000 -1341 -26 -30 -23 -92 4 -123 13 -13 907 -612 1986 -1330 1617 -1075 1970 -1306 1997 -1306 23 0 58 17 121 58 1343 884 3855 2550 3872 2568 15 17 22 38 22 64 0 26 -7 47 -22 63 -19 20 -1157 793 -3785 2571 -112 75 -150 96 -177 96 -29 0 -346 -207 -2018 -1320z m4110 -320 c881 -597 1602 -1087 1602 -1090 0 -5 -3718 -2465 -3725 -2465 -7 0 -3715 2470 -3715 2475 0 3 843 566 1873 1251 l1872 1246 245 -166 c135 -91 967 -654 1848 -1251z"/>
 <path d="M4828 6487 c-278 -278 -468 -432 -903 -732 -280 -194 -347 -245 -456 -354 -106 -107 -158 -180 -205 -291 -103 -238 -80 -568 56 -834 212 -413 627 -591 1076 -460 196 56 355 154 518 318 l109 109 21 -29 c110 -151 250 -270 421 -354 173 -86 254 -105 440 -105 169 0 231 12 354 71 335 158 551 533 551 953 0 203 -61 387 -178 541 -78 104 -243 254 -473 430 -454 348 -612 484 -881 753 -236 236 -197 238 -450 -16z m582 -394 c106 -97 321 -272 572 -464 469 -360 586 -504 619 -759 34 -267 -88 -602 -278 -765 -178 -153 -415 -191 -667 -107 -91 30 -221 105 -302 176 -71 62 -162 176 -210 264 -46 83 -68 102 -119 101 -51 0 -60 -7 -124 -102 -138 -205 -329 -351 -551 -422 -112 -36 -290 -45 -395 -21 -121 29 -209 79 -305 176 -98 98 -154 189 -200 327 -95 286 -48 536 137 733 95 101 173 162 473 370 410 284 600 436 865 692 l140 135 145 -142 c80 -78 170 -164 200 -192z"/>
 </g>

</svg>