<!DOCTYPE svg PUBLIC "-//W3C//DTD SVG 20010904//EN" "http://www.w3.org/TR/2001/REC-SVG-20010904/DTD/svg10.dtd">
<svg version="1.0" xmlns="http://www.w3.org/2000/svg" width="293px" height="304px" viewBox="0 0 2930 3040" preserveAspectRatio="xMidYMid meet">
<g id="layer101" fill="#ffffff" stroke="none">
 <path d="M2085 3021 c-173 -62 -322 -194 -430 -382 l-45 -79 -53 21 c-224 90 -416 114 -560 69 -113 -35 -231 -138 -295 -258 -35 -66 -87 -215 -97 -282 l-8 -45 45 41 c74 69 193 104 418 124 189 16 320 53 426 118 26 17 49 30 50 29 1 -1 -9 -42 -22 -92 -28 -104 -74 -369 -74 -424 0 -55 -9 -56 -42 -6 -58 88 -135 136 -285 181 -252 74 -502 26 -645 -124 -47 -49 -60 -71 -79 -133 -59 -193 -8 -329 156 -416 70 -37 118 -54 235 -83 120 -30 116 -27 96 -49 -16 -18 -19 -18 -76 0 -239 74 -424 61 -597 -43 -70 -42 -147 -118 -174 -171 -31 -59 -36 -152 -14 -233 34 -128 137 -228 289 -282 65 -24 85 -26 236 -26 153 -1 170 1 230 25 81 31 152 78 255 169 123 108 125 84 4 -47 -95 -102 -103 -119 -103 -228 0 -80 3 -96 28 -144 60 -116 185 -205 331 -236 101 -21 255 -19 349 5 170 43 313 135 361 231 52 101 29 214 -73 366 -21 32 -49 75 -62 97 -22 36 -22 38 -3 28 11 -6 32 -27 46 -45 54 -71 206 -160 327 -192 85 -23 252 -23 340 -1 143 36 275 124 330 220 28 47 30 59 30 152 0 87 -3 107 -25 151 -46 91 -158 186 -270 229 -76 29 -292 27 -448 -5 -111 -22 -143 -23 -121 -1 5 5 58 20 118 35 60 14 134 39 166 56 73 39 163 119 195 172 46 81 51 227 10 307 -25 48 -85 110 -140 145 -258 162 -626 132 -809 -66 -35 -38 -60 -76 -71 -109 -9 -27 -18 -50 -19 -50 -5 0 4 97 20 220 50 385 195 681 423 862 74 59 172 114 244 138 l39 12 -33 34 c-37 38 -53 40 -124 15z m-403 -1613 c240 -235 270 -278 272 -382 2 -145 -156 -242 -319 -196 -53 15 -127 76 -145 120 -15 36 -26 38 -35 8 -24 -77 -120 -138 -219 -138 -84 0 -131 15 -177 57 -54 48 -69 81 -69 146 0 107 47 169 348 461 67 65 122 123 122 127 0 5 1 9 3 9 1 0 100 -96 219 -212z"/>
 </g>

</svg>