<!DOCTYPE svg PUBLIC "-//W3C//DTD SVG 20010904//EN" "http://www.w3.org/TR/2001/REC-SVG-20010904/DTD/svg10.dtd">
<svg version="1.0" xmlns="http://www.w3.org/2000/svg" width="855px" height="169px" viewBox="0 0 8550 1690" preserveAspectRatio="xMidYMid meet">
<g id="layer101" fill="#ffffff" stroke="none">
 <path d="M2485 1675 c-288 -63 -461 -271 -495 -595 -5 -56 -10 -313 -10 -571 l0 -469 94 0 95 0 4 528 c4 573 6 591 63 705 39 76 70 113 133 158 140 101 371 115 538 34 117 -58 193 -160 228 -307 12 -52 15 -158 15 -590 l0 -528 95 0 95 0 0 523 c0 475 -2 530 -19 615 -55 266 -230 445 -483 496 -93 19 -269 20 -353 1z"/>
 <path d="M0 855 l0 -815 95 0 95 0 293 440 294 440 293 -440 293 -440 99 0 98 0 -2 813 -3 812 -92 3 -93 3 -2 -656 -3 -655 -290 427 c-159 235 -294 428 -300 429 -5 2 -142 -191 -302 -428 l-293 -431 0 656 0 657 -90 0 -90 0 0 -815z"/>
 <path d="M3770 855 l0 -815 406 0 c452 0 490 4 621 66 197 94 298 305 252 526 -36 172 -181 311 -375 359 l-52 12 240 319 c131 176 242 326 245 334 4 12 -13 14 -105 14 l-110 0 -234 -315 -233 -314 -232 -1 -233 0 0 315 0 315 -95 0 -95 0 0 -815z m851 -15 c127 -39 204 -110 236 -219 18 -62 13 -157 -11 -215 -23 -55 -90 -121 -154 -149 -87 -39 -162 -47 -459 -47 l-273 0 0 325 0 325 299 0 c269 0 305 -2 362 -20z"/>
 <path d="M5310 1663 c1 -4 167 -375 370 -823 l368 -815 88 0 88 0 368 815 c202 448 368 818 368 822 0 4 -44 8 -98 8 l-98 0 -95 -215 -94 -215 -443 3 -443 2 -94 210 -94 210 -95 3 c-53 1 -96 -1 -96 -5z m1182 -610 c-5 -10 -87 -193 -182 -408 -95 -214 -174 -391 -175 -393 -2 -2 -344 758 -360 801 -7 16 14 17 359 17 346 0 366 -1 358 -17z"/>
 <path d="M7695 1635 c-229 -50 -391 -197 -461 -419 -36 -114 -44 -251 -44 -763 l0 -453 94 0 94 0 5 527 c4 580 5 591 68 714 59 118 162 194 304 224 178 37 350 -4 465 -111 59 -55 95 -121 120 -220 19 -72 20 -112 20 -606 l0 -528 96 0 95 0 -3 558 c-4 545 -4 559 -27 632 -72 237 -240 398 -466 445 -86 18 -279 18 -360 0z"/>
 </g>

</svg>